<svg width="966" height="1480" viewBox="0 0 966 1480" fill="none" xmlns="http://www.w3.org/2000/svg">
<path d="M178.427 941.257C172.051 903.992 212.491 832.662 332.658 708.562C379.127 662.466 428.339 613.376 471.538 569.501C487.72 553.149 503.757 536.884 519.534 520.592C587.104 450.046 625.192 388.005 647.808 312.249C681.104 200.395 590.214 83.0492 563.218 57.9819C558.555 53.5991 549.847 57.61 550.891 63.1525C557.25 100.518 516.826 171.748 396.66 295.848C350.174 342.045 300.979 391.034 257.78 434.908C241.485 451.146 225.561 467.526 209.801 483.717C142.214 554.363 104.013 616.291 81.3798 692.147C47.9547 803.987 138.957 921.448 166.083 946.528C170.633 950.797 179.324 946.887 178.297 941.244" fill="#DEDDDD"/>
<path d="M395.813 1416.67C389.434 1379.4 429.881 1308.07 550.052 1184.08C596.677 1137.89 645.751 1088.89 688.958 1045.02C705.143 1028.67 721.312 1012.42 736.963 996.11C804.415 925.552 842.606 863.726 865.387 787.783C898.816 675.943 807.513 558.554 780.656 533.399C776.105 529.130 767.525 533.154 768.439 538.683C774.947 575.962 734.242 647.265 614.166 771.477C567.559 817.558 518.614 866.573 475.407 910.447C459.092 926.786 442.94 942.936 427.272 959.342C359.691 1029.89 321.466 1091.91 298.977 1167.68C265.566 1279.42 356.576 1396.99 383.45 1422.04C388.277 1426.23 396.694 1422.4 395.796 1416.77" fill="#DEDDDD"/>
</svg>
